<?xml version="1.0" encoding="utf-8"?>
<!-- Generator: Adobe Illustrator 23.0.3, SVG Export Plug-In . SVG Version: 6.00 Build 0)  -->
<svg version="1.1" id="レイヤー_1" xmlns="http://www.w3.org/2000/svg" xmlns:xlink="http://www.w3.org/1999/xlink" x="0px"
	 y="0px" viewBox="0 0 960 540" style="enable-background:new 0 0 960 540;" xml:space="preserve">
<g>
	<path d="M-3.5-3.5h-5v-5h5V-3.5z M-7.5-4.5h3v-3h-3V-4.5z"/>
	<path d="M8.5-3.5h-5v-5h5V-3.5z M4.5-4.5h3v-3h-3V-4.5z"/>
	<path d="M-3.5,8.5h-5v-5h5V8.5z M-7.5,7.5h3v-3h-3V7.5z"/>
	<path d="M8.5,8.5h-5v-5h5V8.5z M4.5,7.5h3v-3h-3V7.5z"/>
	<rect x="-0.5" y="-6.16" transform="matrix(0.7071 -0.7071 0.7071 0.7071 0 0)" width="1" height="12.31"/>
	<rect x="-5.55" y="-0.75" transform="matrix(0.7071 -0.7071 0.7071 0.7071 0.25 0.1036)" width="11.61" height="1"/>
</g>
</svg>
