<?xml version="1.0" encoding="utf-8"?>
<!-- Generator: Adobe Illustrator 23.0.3, SVG Export Plug-In . SVG Version: 6.00 Build 0)  -->
<svg version="1.1" id="レイヤー_1" xmlns="http://www.w3.org/2000/svg" xmlns:xlink="http://www.w3.org/1999/xlink" x="0px"
	 y="0px" viewBox="0 0 960 540" style="enable-background:new 0 0 960 540;" xml:space="preserve">
<style type="text/css">
	.st0{fill:none;stroke:#000000;stroke-miterlimit:10;}
	.st1{fill:none;stroke:#000000;stroke-linecap:square;stroke-miterlimit:10;}
</style>
<g>
	<rect x="-1" y="-9" transform="matrix(6.123234e-17 -1 1 6.123234e-17 8 -8)" class="st0" width="2" height="2"/>
	<rect x="-1" y="7" transform="matrix(6.123234e-17 -1 1 6.123234e-17 -8 8)" class="st0" width="2" height="2"/>
	<rect x="7" y="-1" class="st0" width="2" height="2"/>
	<rect x="-9" y="-1" class="st0" width="2" height="2"/>
	<rect x="-1" y="-1" class="st0" width="2" height="2"/>
	<line class="st1" x1="0" y1="-6" x2="0" y2="-2"/>
	<line class="st1" x1="0" y1="2" x2="0" y2="6"/>
	<line class="st1" x1="6" y1="0" x2="2" y2="0"/>
	<line class="st1" x1="-2" y1="0" x2="-6" y2="0"/>
	<line class="st1" x1="3.54" y1="-3.54" x2="2.12" y2="-2.12"/>
	<line class="st1" x1="-2.12" y1="2.12" x2="-3.54" y2="3.54"/>
	<line class="st1" x1="3.54" y1="3.54" x2="2.12" y2="2.12"/>
	<line class="st1" x1="-2.12" y1="-2.12" x2="-3.54" y2="-3.54"/>
	<rect x="-9" y="-9" class="st1" width="4" height="4"/>
	<rect x="5" y="-9" class="st1" width="4" height="4"/>
	<rect x="-9" y="5" class="st1" width="4" height="4"/>
	<rect x="5" y="5" class="st1" width="4" height="4"/>
</g>
</svg>
