<?xml version="1.0" encoding="utf-8"?>
<!-- Generator: Adobe Illustrator 23.0.3, SVG Export Plug-In . SVG Version: 6.00 Build 0)  -->
<svg version="1.1" id="レイヤー_1" xmlns="http://www.w3.org/2000/svg" xmlns:xlink="http://www.w3.org/1999/xlink" x="0px"
	 y="0px" viewBox="0 0 960 540" style="enable-background:new 0 0 960 540;" xml:space="preserve">
<g>
	<rect x="-0.5" y="-10.5" width="1" height="3"/>
	<rect x="-2.37" y="-10.3" transform="matrix(0.9781 -0.208 0.208 0.9781 1.7901 -0.5817)" width="1" height="3"/>
	<rect x="-4.16" y="-9.72" transform="matrix(0.9135 -0.4068 0.4068 0.9135 3.028 -2.2001)" width="1" height="3"/>
	<rect x="-5.79" y="-8.78" transform="matrix(0.8089 -0.5879 0.5879 0.8089 3.2699 -4.5012)" width="1" height="3"/>
	<rect x="-7.19" y="-7.52" transform="matrix(0.6691 -0.7432 0.7432 0.6691 2.2623 -6.9633)" width="1" height="3"/>
	<rect x="-8.29" y="-6" transform="matrix(0.5 -0.866 0.866 0.5 -3.164856e-05 -9.0001)" width="1" height="3"/>
	<rect x="-9.06" y="-4.28" transform="matrix(0.3091 -0.951 0.951 0.3091 -3.2688 -10.062)" width="1" height="3"/>
	<rect x="-9.45" y="-2.44" transform="matrix(0.1045 -0.9945 0.9945 0.1045 -7.0796 -9.7443)" width="1" height="3"/>
	<rect x="-10.45" y="0.44" transform="matrix(0.9945 -0.1045 0.1045 0.9945 -0.1474 -0.9305)" width="3" height="1"/>
	<rect x="-10.06" y="2.28" transform="matrix(0.951 -0.3092 0.3092 0.951 -1.2793 -2.5102)" width="3" height="1"/>
	<rect x="-9.29" y="4" transform="matrix(0.8661 -0.4999 0.4999 0.8661 -3.2935 -3.2938)" width="3" height="1"/>
	<rect x="-8.19" y="5.52" transform="matrix(0.7432 -0.669 0.669 0.7432 -5.7463 -2.9285)" width="3" height="1"/>
	<rect x="-6.79" y="6.78" transform="matrix(0.5881 -0.8088 0.8088 0.5881 -8.0684 -1.2792)" width="3" height="1"/>
	<rect x="-5.16" y="7.72" transform="matrix(0.4067 -0.9135 0.9135 0.4067 -9.6829 1.5337)" width="3" height="1"/>
	<rect x="-3.37" y="8.3" transform="matrix(0.2079 -0.9781 0.9781 0.2079 -10.0929 5.1426)" width="3" height="1"/>
	<rect x="-0.5" y="7.5" width="1" height="3"/>
	<rect x="1.37" y="7.3" transform="matrix(0.9781 -0.208 0.208 0.9781 -1.7901 0.5817)" width="1" height="3"/>
	<rect x="3.16" y="6.72" transform="matrix(0.9135 -0.4068 0.4068 0.9135 -3.028 2.2001)" width="1" height="3"/>
	<rect x="4.79" y="5.78" transform="matrix(0.8089 -0.5879 0.5879 0.8089 -3.2699 4.5012)" width="1" height="3"/>
	<rect x="6.19" y="4.52" transform="matrix(0.6691 -0.7432 0.7432 0.6691 -2.2623 6.9633)" width="1" height="3"/>
	<rect x="7.29" y="3" transform="matrix(0.5 -0.866 0.866 0.5 3.164856e-05 9.0001)" width="1" height="3"/>
	<rect x="8.06" y="1.28" transform="matrix(0.3091 -0.951 0.951 0.3091 3.2688 10.062)" width="1" height="3"/>
	<rect x="8.45" y="-0.56" transform="matrix(0.1045 -0.9945 0.9945 0.1045 7.0796 9.7443)" width="1" height="3"/>
	<rect x="7.45" y="-1.44" transform="matrix(0.9945 -0.1045 0.1045 0.9945 0.1474 0.9305)" width="3" height="1"/>
	<rect x="7.06" y="-3.28" transform="matrix(0.951 -0.3092 0.3092 0.951 1.2793 2.5102)" width="3" height="1"/>
	<rect x="6.29" y="-5" transform="matrix(0.8661 -0.4999 0.4999 0.8661 3.2935 3.2938)" width="3" height="1"/>
	<rect x="5.19" y="-6.52" transform="matrix(0.7432 -0.669 0.669 0.7432 5.7463 2.9285)" width="3" height="1"/>
	<rect x="3.79" y="-7.78" transform="matrix(0.5881 -0.8088 0.8088 0.5881 8.0684 1.2792)" width="3" height="1"/>
	<rect x="2.16" y="-8.72" transform="matrix(0.4067 -0.9135 0.9135 0.4067 9.6829 -1.5337)" width="3" height="1"/>
	<rect x="0.37" y="-9.3" transform="matrix(0.2079 -0.9781 0.9781 0.2079 10.0929 -5.1426)" width="3" height="1"/>
</g>
</svg>
