<?xml version="1.0" encoding="utf-8"?>
<!-- Generator: Adobe Illustrator 23.0.3, SVG Export Plug-In . SVG Version: 6.00 Build 0)  -->
<svg version="1.1" id="レイヤー_1" xmlns="http://www.w3.org/2000/svg" xmlns:xlink="http://www.w3.org/1999/xlink" x="0px"
	 y="0px" viewBox="0 0 960 540" style="enable-background:new 0 0 960 540;" xml:space="preserve">
<g>
	<g>
		<path d="M8.5-2.11L2.11-8.5H8.5V-2.11z M4.52-7.5L7.5-4.52V-7.5H4.52z"/>
		<path d="M-8.5-2.11V-8.5h6.39L-8.5-2.11z M-7.5-7.5v2.98l2.98-2.98H-7.5z"/>
		<path d="M-2.11,8.5H-8.5V2.11L-2.11,8.5z M-7.5,7.5h2.98L-7.5,4.52V7.5z"/>
		<path d="M8.5,8.5H2.11L8.5,2.11V8.5z M4.52,7.5H7.5V4.52L4.52,7.5z"/>
	</g>
	<path d="M0,2.5c-1.38,0-2.5-1.12-2.5-2.5S-1.38-2.5,0-2.5S2.5-1.38,2.5,0S1.38,2.5,0,2.5z M0-1.5c-0.83,0-1.5,0.67-1.5,1.5
		S-0.83,1.5,0,1.5S1.5,0.83,1.5,0S0.83-1.5,0-1.5z"/>
</g>
</svg>
