<?xml version="1.0" encoding="utf-8"?>
<!-- Generator: Adobe Illustrator 23.0.3, SVG Export Plug-In . SVG Version: 6.00 Build 0)  -->
<svg version="1.1" id="レイヤー_1" xmlns="http://www.w3.org/2000/svg" xmlns:xlink="http://www.w3.org/1999/xlink" x="0px"
	 y="0px" viewBox="0 0 960 540" style="enable-background:new 0 0 960 540;" xml:space="preserve">
<style type="text/css">
	.st0{fill:none;stroke:#000000;stroke-linecap:square;stroke-miterlimit:10;}
</style>
<g>
	<line class="st0" x1="-1" y1="-10" x2="-1" y2="-6"/>
	<line class="st0" x1="1" y1="-10" x2="1" y2="-6"/>
	<line class="st0" x1="-1" y1="6" x2="-1" y2="10"/>
	<line class="st0" x1="1" y1="6" x2="1" y2="10"/>
	<line class="st0" x1="10" y1="-1" x2="6" y2="-1"/>
	<line class="st0" x1="10" y1="1" x2="6" y2="1"/>
	<line class="st0" x1="-6" y1="-1" x2="-10" y2="-1"/>
	<line class="st0" x1="-6" y1="1" x2="-10" y2="1"/>
	<polyline class="st0" points="-4,-8 -8,-8 -8,-4 	"/>
	<polyline class="st0" points="-8,4 -8,8 -4,8 	"/>
	<polyline class="st0" points="4,8 8,8 8,4 	"/>
	<polyline class="st0" points="4,-8 8,-8 8,-4 	"/>
	<polyline class="st0" points="1.06,-3.18 0,-4.24 -1.06,-3.18 	"/>
	<polyline class="st0" points="-3.18,-1.06 -4.24,0 -3.18,1.06 	"/>
	<polyline class="st0" points="-1.06,3.18 0,4.24 1.06,3.18 	"/>
	<polyline class="st0" points="3.18,-1.06 4.24,0 3.18,1.06 	"/>
</g>
</svg>
