<?xml version="1.0" encoding="utf-8"?>
<!-- Generator: Adobe Illustrator 23.0.3, SVG Export Plug-In . SVG Version: 6.00 Build 0)  -->
<svg version="1.1" id="レイヤー_1" xmlns="http://www.w3.org/2000/svg" xmlns:xlink="http://www.w3.org/1999/xlink" x="0px"
	 y="0px" viewBox="0 0 960 540" style="enable-background:new 0 0 960 540;" xml:space="preserve">
<g>
	<path d="M2.5,2.5h-5v-5h5V2.5z M-1.5,1.5h3v-3h-3V1.5z"/>
	<rect x="-0.5" y="-9.9" transform="matrix(0.7071 -0.7071 0.7071 0.7071 0 0)" width="1" height="19.8"/>
	<rect x="-9.9" y="-0.5" transform="matrix(0.7071 -0.7071 0.7071 0.7071 0 0)" width="19.8" height="1"/>
	<rect x="4.5" y="-16.31" transform="matrix(0.7071 -0.7071 0.7071 0.7071 5 2.0711)" width="1" height="22.63"/>
	<rect x="-5.5" y="-6.31" transform="matrix(0.7071 -0.7071 0.7071 0.7071 -5 -2.0711)" width="1" height="22.63"/>
	<rect x="-6.31" y="4.5" transform="matrix(0.7071 -0.7071 0.7071 0.7071 -2.0711 5)" width="22.63" height="1"/>
	<rect x="-16.31" y="-5.5" transform="matrix(0.7071 -0.7071 0.7071 0.7071 2.0711 -5)" width="22.63" height="1"/>
	<path d="M-6.5-6.5h-3v-3h3V-6.5z M-8.5-7.5h1v-1h-1V-7.5z"/>
	<path d="M9.5,9.5h-3v-3h3V9.5z M7.5,8.5h1v-1h-1V8.5z"/>
	<path d="M-6.5,9.5h-3v-3h3V9.5z M-8.5,8.5h1v-1h-1V8.5z"/>
	<path d="M9.5-6.5h-3v-3h3V-6.5z M7.5-7.5h1v-1h-1V-7.5z"/>
</g>
</svg>
