<?xml version="1.0" encoding="utf-8"?>
<!-- Generator: Adobe Illustrator 23.0.3, SVG Export Plug-In . SVG Version: 6.00 Build 0)  -->
<svg version="1.1" id="レイヤー_1" xmlns="http://www.w3.org/2000/svg" xmlns:xlink="http://www.w3.org/1999/xlink" x="0px"
	 y="0px" viewBox="0 0 960 540" style="enable-background:new 0 0 960 540;" xml:space="preserve">
<g>
	<path d="M0,2.5c-1.38,0-2.5-1.12-2.5-2.5S-1.38-2.5,0-2.5S2.5-1.38,2.5,0S1.38,2.5,0,2.5z M0-1.5c-0.83,0-1.5,0.67-1.5,1.5
		S-0.83,1.5,0,1.5S1.5,0.83,1.5,0S0.83-1.5,0-1.5z"/>
	<path d="M0,12.02L-12.02,0L0-12.02L12.02,0L0,12.02z M-10.61,0L0,10.61L10.61,0L0-10.61L-10.61,0z"/>
</g>
</svg>
