<?xml version="1.0" encoding="utf-8"?>
<!-- Generator: Adobe Illustrator 23.0.3, SVG Export Plug-In . SVG Version: 6.00 Build 0)  -->
<svg version="1.1" id="レイヤー_1" xmlns="http://www.w3.org/2000/svg" xmlns:xlink="http://www.w3.org/1999/xlink" x="0px"
	 y="0px" viewBox="0 0 960 540" style="enable-background:new 0 0 960 540;" xml:space="preserve">
<g>
	<rect x="-1.5" y="-10.5" width="1" height="5"/>
	<rect x="0.5" y="-10.5" width="1" height="5"/>
	<rect x="-1.5" y="5.5" width="1" height="5"/>
	<rect x="0.5" y="5.5" width="1" height="5"/>
	<rect x="5.5" y="-1.5" width="5" height="1"/>
	<rect x="5.5" y="0.5" width="5" height="1"/>
	<rect x="-10.5" y="-1.5" width="5" height="1"/>
	<rect x="-10.5" y="0.5" width="5" height="1"/>
	<polygon points="-7.5,-3.5 -8.5,-3.5 -8.5,-8.5 -3.5,-8.5 -3.5,-7.5 -7.5,-7.5 	"/>
	<polygon points="-3.5,8.5 -8.5,8.5 -8.5,3.5 -7.5,3.5 -7.5,7.5 -3.5,7.5 	"/>
	<polygon points="8.5,8.5 3.5,8.5 3.5,7.5 7.5,7.5 7.5,3.5 8.5,3.5 	"/>
	<polygon points="8.5,-3.5 7.5,-3.5 7.5,-7.5 3.5,-7.5 3.5,-8.5 8.5,-8.5 	"/>
	<path d="M-0.5-0.5h-3v-3h3V-0.5z M-2.5-1.5h1v-1h-1V-1.5z"/>
	<path d="M3.5-0.5h-3v-3h3V-0.5z M1.5-1.5h1v-1h-1V-1.5z"/>
	<path d="M-0.5,3.5h-3v-3h3V3.5z M-2.5,2.5h1v-1h-1V2.5z"/>
	<path d="M3.5,3.5h-3v-3h3V3.5z M1.5,2.5h1v-1h-1V2.5z"/>
</g>
</svg>
