<?xml version="1.0" encoding="utf-8"?>
<!-- Generator: Adobe Illustrator 23.0.3, SVG Export Plug-In . SVG Version: 6.00 Build 0)  -->
<svg version="1.1" id="レイヤー_1" xmlns="http://www.w3.org/2000/svg" xmlns:xlink="http://www.w3.org/1999/xlink" x="0px"
	 y="0px" viewBox="0 0 960 540" style="enable-background:new 0 0 960 540;" xml:space="preserve">
<g>
	<path d="M-0.5-0.5h-5v-5h5V-0.5z M-4.5-1.5h3v-3h-3V-1.5z"/>
	<path d="M5.5-0.5h-5v-5h5V-0.5z M1.5-1.5h3v-3h-3V-1.5z"/>
	<path d="M-0.5,5.5h-5v-5h5V5.5z M-4.5,4.5h3v-3h-3V4.5z"/>
	<path d="M5.5,5.5h-5v-5h5V5.5z M1.5,4.5h3v-3h-3V4.5z"/>
	<path d="M-6.5-6.5h-3v-3h3V-6.5z M-8.5-7.5h1v-1h-1V-7.5z"/>
	<path d="M9.5-6.5h-3v-3h3V-6.5z M7.5-7.5h1v-1h-1V-7.5z"/>
	<path d="M-6.5,9.5h-3v-3h3V9.5z M-8.5,8.5h1v-1h-1V8.5z"/>
	<path d="M9.5,9.5h-3v-3h3V9.5z M7.5,8.5h1v-1h-1V8.5z"/>
	<rect x="-6.25" y="-8.5" width="9" height="1"/>
	<rect x="-2.75" y="7.5" width="9" height="1"/>
	<rect x="7.5" y="-6.25" width="1" height="9"/>
	<rect x="-8.5" y="-2.75" width="1" height="9"/>
</g>
</svg>
