<?xml version="1.0" encoding="utf-8"?>
<!-- Generator: Adobe Illustrator 23.0.3, SVG Export Plug-In . SVG Version: 6.00 Build 0)  -->
<svg version="1.1" id="レイヤー_1" xmlns="http://www.w3.org/2000/svg" xmlns:xlink="http://www.w3.org/1999/xlink" x="0px"
	 y="0px" viewBox="0 0 960 540" style="enable-background:new 0 0 960 540;" xml:space="preserve">
<g>
	<path d="M-1.99,2.5c-1.38,0-2.5-1.12-2.5-2.5s1.12-2.5,2.5-2.5s2.5,1.12,2.5,2.5S-0.61,2.5-1.99,2.5z M-1.99-1.5
		c-0.83,0-1.5,0.67-1.5,1.5s0.67,1.5,1.5,1.5s1.5-0.67,1.5-1.5S-1.16-1.5-1.99-1.5z"/>
	<path d="M-1.99,12.02L-14.01,0l12.02-12.02L10.03,0L-1.99,12.02z M-12.6,0l10.61,10.61L8.62,0L-1.99-10.61L-12.6,0z"/>
	<rect x="-2.49" y="-0.5" width="17.5" height="1"/>
</g>
</svg>
