<?xml version="1.0" encoding="utf-8"?>
<!-- Generator: Adobe Illustrator 23.0.3, SVG Export Plug-In . SVG Version: 6.00 Build 0)  -->
<svg version="1.1" id="レイヤー_1" xmlns="http://www.w3.org/2000/svg" xmlns:xlink="http://www.w3.org/1999/xlink" x="0px"
	 y="0px" viewBox="0 0 960 540" style="enable-background:new 0 0 960 540;" xml:space="preserve">
<g>
	<path d="M0,12.02L-12.02,0L0-12.02L12.02,0L0,12.02z M-10.61,0L0,10.61L10.61,0L0-10.61L-10.61,0z"/>
	<path d="M0-11.88L-2.12-14L0-16.12L2.12-14L0-11.88z M-0.71-14L0-13.29L0.71-14L0-14.71L-0.71-14z"/>
	<path d="M0,16.12L-2.12,14L0,11.88L2.12,14L0,16.12z M-0.71,14L0,14.71L0.71,14L0,13.29L-0.71,14z"/>
	<path d="M14,2.12L11.88,0L14-2.12L16.12,0L14,2.12z M13.29,0L14,0.71L14.71,0L14-0.71L13.29,0z"/>
	<path d="M-14,2.12L-16.12,0L-14-2.12L-11.88,0L-14,2.12z M-14.71,0L-14,0.71L-13.29,0L-14-0.71L-14.71,0z"/>
	<path d="M0,9.19L-9.19,0L0-9.19L9.19,0L0,9.19z M-7.78,0L0,7.78L7.78,0L0-7.78L-7.78,0z"/>
	<path d="M1.5,1.5h-3v-3h3V1.5z M-0.5,0.5h1v-1h-1V0.5z"/>
</g>
</svg>
