<?xml version="1.0" encoding="utf-8"?>
<!-- Generator: Adobe Illustrator 23.0.3, SVG Export Plug-In . SVG Version: 6.00 Build 0)  -->
<svg version="1.1" id="レイヤー_1" xmlns="http://www.w3.org/2000/svg" xmlns:xlink="http://www.w3.org/1999/xlink" x="0px"
	 y="0px" viewBox="0 0 960 540" style="enable-background:new 0 0 960 540;" xml:space="preserve">
<g>
	<polygon points="-7.75,-3.75 -8.25,-3.75 -8.25,-8.25 -3.75,-8.25 -3.75,-7.75 -7.75,-7.75 	"/>
	<polygon points="-3.75,8.25 -8.25,8.25 -8.25,3.75 -7.75,3.75 -7.75,7.75 -3.75,7.75 	"/>
	<polygon points="8.25,8.25 3.75,8.25 3.75,7.75 7.75,7.75 7.75,3.75 8.25,3.75 	"/>
	<polygon points="8.25,-3.75 7.75,-3.75 7.75,-7.75 3.75,-7.75 3.75,-8.25 8.25,-8.25 	"/>
	<path d="M4.25,4.25h-8.5v-8.5h8.5V4.25z M-3.75,3.75h7.5v-7.5h-7.5V3.75z"/>
</g>
</svg>
