<?xml version="1.0" encoding="utf-8"?>
<!-- Generator: Adobe Illustrator 23.0.3, SVG Export Plug-In . SVG Version: 6.00 Build 0)  -->
<svg version="1.1" id="レイヤー_1" xmlns="http://www.w3.org/2000/svg" xmlns:xlink="http://www.w3.org/1999/xlink" x="0px"
	 y="0px" viewBox="0 0 960 540" style="enable-background:new 0 0 960 540;" xml:space="preserve">
<g>
	<polygon points="-7.75,-3.5 -8.25,-3.5 -8.25,-8 -3.75,-8 -3.75,-7.5 -7.75,-7.5 	"/>
	<polygon points="-3.75,8.5 -8.25,8.5 -8.25,4 -7.75,4 -7.75,8 -3.75,8 	"/>
	<polygon points="8.25,8.5 3.75,8.5 3.75,8 7.75,8 7.75,4 8.25,4 	"/>
	<polygon points="8.25,-3.5 7.75,-3.5 7.75,-7.5 3.75,-7.5 3.75,-8 8.25,-8 	"/>
	<rect x="-0.25" y="-16.5" width="0.5" height="8.5"/>
	<rect x="8.25" width="8.5" height="0.5"/>
	<rect x="-0.25" y="8" width="0.5" height="8.5"/>
	<rect x="-16.75" width="8.5" height="0.5"/>
	<path d="M1.25,1.5h-2.5V-1h2.5V1.5z M-0.75,1h1.5v-1.5h-1.5V1z"/>
	<path d="M1.25,1.5h-2.5V-1h2.5V1.5z M-0.75,1h1.5v-1.5h-1.5V1z"/>
	<path d="M1.25,1.5h-2.5V-1h2.5V1.5z M-0.75,1h1.5v-1.5h-1.5V1z"/>
	<path d="M1.25,1.5h-2.5V-1h2.5V1.5z M-0.75,1h1.5v-1.5h-1.5V1z"/>
	<path d="M1.25,1.5h-2.5V-1h2.5V1.5z M-0.75,1h1.5v-1.5h-1.5V1z"/>
</g>
</svg>
