<?xml version="1.0" encoding="utf-8"?>
<!-- Generator: Adobe Illustrator 23.0.3, SVG Export Plug-In . SVG Version: 6.00 Build 0)  -->
<svg version="1.1" id="レイヤー_1" xmlns="http://www.w3.org/2000/svg" xmlns:xlink="http://www.w3.org/1999/xlink" x="0px"
	 y="0px" viewBox="0 0 960 540" style="enable-background:new 0 0 960 540;" xml:space="preserve">
<g>
	<g>
		<path d="M-3.03,9.38h-7.79l3.9-6.75L-3.03,9.38z M-9.96,8.88h6.06l-3.03-5.25L-9.96,8.88z"/>
		<path d="M3.9-2.62H-3.9L0-9.38L3.9-2.62z M-3.03-3.12h6.06L0-8.38L-3.03-3.12z"/>
		<path d="M10.83,9.38H3.03l3.9-6.75L10.83,9.38z M3.9,8.88h6.06L6.93,3.62L3.9,8.88z"/>
	</g>
	<path d="M0,5.38c-1.24,0-2.25-1.01-2.25-2.25S-1.24,0.88,0,0.88s2.25,1.01,2.25,2.25S1.24,5.38,0,5.38z M0,1.38
		c-0.96,0-1.75,0.79-1.75,1.75S-0.96,4.88,0,4.88s1.75-0.79,1.75-1.75S0.96,1.38,0,1.38z"/>
</g>
</svg>
