<?xml version="1.0" encoding="utf-8"?>
<!-- Generator: Adobe Illustrator 23.0.3, SVG Export Plug-In . SVG Version: 6.00 Build 0)  -->
<svg version="1.1" id="レイヤー_1" xmlns="http://www.w3.org/2000/svg" xmlns:xlink="http://www.w3.org/1999/xlink" x="0px"
	 y="0px" viewBox="0 0 960 540" style="enable-background:new 0 0 960 540;" xml:space="preserve">
<g>
	<rect x="-1.25" y="-10.25" width="0.5" height="4.5"/>
	<rect x="0.75" y="-10.25" width="0.5" height="4.5"/>
	<rect x="-1.25" y="5.75" width="0.5" height="4.5"/>
	<rect x="0.75" y="5.75" width="0.5" height="4.5"/>
	<rect x="5.75" y="-1.25" width="4.5" height="0.5"/>
	<rect x="5.75" y="0.75" width="4.5" height="0.5"/>
	<rect x="-10.25" y="-1.25" width="4.5" height="0.5"/>
	<rect x="-10.25" y="0.75" width="4.5" height="0.5"/>
	<polygon points="-7.75,-3.75 -8.25,-3.75 -8.25,-8.25 -3.75,-8.25 -3.75,-7.75 -7.75,-7.75 	"/>
	<polygon points="-3.75,8.25 -8.25,8.25 -8.25,3.75 -7.75,3.75 -7.75,7.75 -3.75,7.75 	"/>
	<polygon points="8.25,8.25 3.75,8.25 3.75,7.75 7.75,7.75 7.75,3.75 8.25,3.75 	"/>
	<polygon points="8.25,-3.75 7.75,-3.75 7.75,-7.75 3.75,-7.75 3.75,-8.25 8.25,-8.25 	"/>
	<polygon points="1.06,-2.83 0,-3.89 -1.06,-2.83 -1.41,-3.18 0,-4.6 1.41,-3.18 	"/>
	<polygon points="-3.18,1.41 -4.6,0 -3.18,-1.41 -2.83,-1.06 -3.89,0 -2.83,1.06 	"/>
	<polygon points="0,4.6 -1.41,3.18 -1.06,2.83 0,3.89 1.06,2.83 1.41,3.18 	"/>
	<polygon points="3.18,1.41 2.83,1.06 3.89,0 2.83,-1.06 3.18,-1.41 4.6,0 	"/>
</g>
</svg>
