<?xml version="1.0" encoding="utf-8"?>
<!-- Generator: Adobe Illustrator 23.0.3, SVG Export Plug-In . SVG Version: 6.00 Build 0)  -->
<svg version="1.1" id="レイヤー_1" xmlns="http://www.w3.org/2000/svg" xmlns:xlink="http://www.w3.org/1999/xlink" x="0px"
	 y="0px" viewBox="0 0 960 540" style="enable-background:new 0 0 960 540;" xml:space="preserve">
<g>
	<path d="M-0.75-0.75h-4.5v-4.5h4.5V-0.75z M-4.75-1.25h3.5v-3.5h-3.5V-1.25z"/>
	<path d="M5.25-0.75h-4.5v-4.5h4.5V-0.75z M1.25-1.25h3.5v-3.5h-3.5V-1.25z"/>
	<path d="M-0.75,5.25h-4.5v-4.5h4.5V5.25z M-4.75,4.75h3.5v-3.5h-3.5V4.75z"/>
	<path d="M5.25,5.25h-4.5v-4.5h4.5V5.25z M1.25,4.75h3.5v-3.5h-3.5V4.75z"/>
	<rect x="-8.25" y="-11.08" transform="matrix(0.7071 -0.7071 0.7071 0.7071 3.3137 -8)" width="0.5" height="6.16"/>
	<rect x="7.75" y="4.92" transform="matrix(0.7071 -0.7071 0.7071 0.7071 -3.3137 8)" width="0.5" height="6.16"/>
	<rect x="-11.03" y="7.88" transform="matrix(0.7071 -0.7071 0.7071 0.7071 -8.125 -3.3655)" width="5.8" height="0.5"/>
	<rect x="5.1" y="-8.25" transform="matrix(0.7071 -0.7071 0.7071 0.7071 8 3.3137)" width="5.8" height="0.5"/>
	<path d="M-9.75-9.75h-2.5v-2.5h2.5V-9.75z M-11.75-10.25h1.5v-1.5h-1.5V-10.25z"/>
	<path d="M12.25-9.75h-2.5v-2.5h2.5V-9.75z M10.25-10.25h1.5v-1.5h-1.5V-10.25z"/>
	<path d="M-9.75,12.25h-2.5v-2.5h2.5V12.25z M-11.75,11.75h1.5v-1.5h-1.5V11.75z"/>
	<path d="M12.25,12.25h-2.5v-2.5h2.5V12.25z M10.25,11.75h1.5v-1.5h-1.5V11.75z"/>
</g>
</svg>
