<?xml version="1.0" encoding="utf-8"?>
<!-- Generator: Adobe Illustrator 23.0.3, SVG Export Plug-In . SVG Version: 6.00 Build 0)  -->
<svg version="1.1" id="レイヤー_1" xmlns="http://www.w3.org/2000/svg" xmlns:xlink="http://www.w3.org/1999/xlink" x="0px"
	 y="0px" viewBox="0 0 960 540" style="enable-background:new 0 0 960 540;" xml:space="preserve">
<g>
	<rect x="-0.25" y="-10.25" width="0.5" height="8.5"/>
	<rect x="-2.12" y="-10.05" transform="matrix(0.9781 -0.208 0.208 0.9781 1.7906 -0.5819)" width="0.5" height="2.5"/>
	<rect x="-3.91" y="-9.47" transform="matrix(0.9135 -0.4069 0.4069 0.9135 3.0289 -2.2011)" width="0.5" height="2.5"/>
	<rect x="-5.54" y="-8.53" transform="matrix(0.809 -0.5879 0.5879 0.809 3.2698 -4.5009)" width="0.5" height="2.5"/>
	<rect x="-6.94" y="-7.27" transform="matrix(0.6691 -0.7431 0.7431 0.6691 2.2624 -6.9631)" width="0.5" height="2.5"/>
	<rect x="-8.04" y="-5.75" transform="matrix(0.5001 -0.866 0.866 0.5001 4.810833e-04 -8.9992)" width="0.5" height="2.5"/>
	<rect x="-8.81" y="-4.03" transform="matrix(0.309 -0.9511 0.9511 0.309 -3.2699 -10.0628)" width="0.5" height="2.5"/>
	<rect x="-9.2" y="-2.19" transform="matrix(0.1045 -0.9945 0.9945 0.1045 -7.0798 -9.7443)" width="0.5" height="2.5"/>
	<rect x="-10.2" y="0.69" transform="matrix(0.9945 -0.1044 0.1044 0.9945 -0.1472 -0.9296)" width="2.5" height="0.5"/>
	<rect x="-9.81" y="2.53" transform="matrix(0.9512 -0.3086 0.3086 0.9512 -1.2761 -2.5057)" width="2.5" height="0.5"/>
	<rect x="-9.04" y="4.25" transform="matrix(0.8658 -0.5003 0.5003 0.8658 -3.2973 -3.296)" width="2.5" height="0.5"/>
	<rect x="-7.94" y="5.77" transform="matrix(0.7432 -0.669 0.669 0.7432 -5.7463 -2.9285)" width="2.5" height="0.5"/>
	<rect x="-6.54" y="7.03" transform="matrix(0.5881 -0.8088 0.8088 0.5881 -8.0684 -1.2792)" width="2.5" height="0.5"/>
	<rect x="-4.91" y="7.97" transform="matrix(0.4073 -0.9133 0.9133 0.4073 -9.6786 1.5298)" width="2.5" height="0.5"/>
	<rect x="-3.12" y="8.55" transform="matrix(0.2081 -0.9781 0.9781 0.2081 -10.0921 5.1409)" width="2.5" height="0.5"/>
	<rect x="-0.25" y="7.75" width="0.5" height="2.5"/>
	<rect x="1.62" y="7.55" transform="matrix(0.9781 -0.208 0.208 0.9781 -1.7906 0.5819)" width="0.5" height="2.5"/>
	<rect x="3.41" y="6.97" transform="matrix(0.9135 -0.4069 0.4069 0.9135 -3.0289 2.2011)" width="0.5" height="2.5"/>
	<rect x="5.04" y="6.03" transform="matrix(0.809 -0.5879 0.5879 0.809 -3.2698 4.5009)" width="0.5" height="2.5"/>
	<rect x="6.44" y="4.77" transform="matrix(0.6691 -0.7431 0.7431 0.6691 -2.2624 6.9631)" width="0.5" height="2.5"/>
	<rect x="7.54" y="3.25" transform="matrix(0.5001 -0.866 0.866 0.5001 -4.810833e-04 8.9992)" width="0.5" height="2.5"/>
	<rect x="8.31" y="1.53" transform="matrix(0.309 -0.9511 0.9511 0.309 3.2699 10.0628)" width="0.5" height="2.5"/>
	<rect x="8.7" y="-0.31" transform="matrix(0.1045 -0.9945 0.9945 0.1045 7.0798 9.7443)" width="0.5" height="2.5"/>
	<rect x="7.7" y="-1.19" transform="matrix(0.9945 -0.1044 0.1044 0.9945 0.1472 0.9296)" width="2.5" height="0.5"/>
	<rect x="7.31" y="-3.03" transform="matrix(0.9512 -0.3086 0.3086 0.9512 1.2761 2.5057)" width="2.5" height="0.5"/>
	<rect x="6.54" y="-4.75" transform="matrix(0.8658 -0.5003 0.5003 0.8658 3.2973 3.296)" width="2.5" height="0.5"/>
	<rect x="5.44" y="-6.27" transform="matrix(0.7432 -0.669 0.669 0.7432 5.7463 2.9285)" width="2.5" height="0.5"/>
	<rect x="4.04" y="-7.53" transform="matrix(0.5881 -0.8088 0.8088 0.5881 8.0684 1.2792)" width="2.5" height="0.5"/>
	<rect x="2.41" y="-8.47" transform="matrix(0.4073 -0.9133 0.9133 0.4073 9.6786 -1.5298)" width="2.5" height="0.5"/>
	<rect x="0.62" y="-9.05" transform="matrix(0.2081 -0.9781 0.9781 0.2081 10.0921 -5.1409)" width="2.5" height="0.5"/>
</g>
</svg>
