<?xml version="1.0" encoding="utf-8"?>
<!-- Generator: Adobe Illustrator 23.0.3, SVG Export Plug-In . SVG Version: 6.00 Build 0)  -->
<svg version="1.1" id="レイヤー_1" xmlns="http://www.w3.org/2000/svg" xmlns:xlink="http://www.w3.org/1999/xlink" x="0px"
	 y="0px" viewBox="0 0 960 540" style="enable-background:new 0 0 960 540;" xml:space="preserve">
<g>
	<path d="M-0.75-0.75h-4.5v-4.5h4.5V-0.75z M-4.75-1.25h3.5v-3.5h-3.5V-1.25z"/>
	<path d="M5.25-0.75h-4.5v-4.5h4.5V-0.75z M1.25-1.25h3.5v-3.5h-3.5V-1.25z"/>
	<path d="M-0.75,5.25h-4.5v-4.5h4.5V5.25z M-4.75,4.75h3.5v-3.5h-3.5V4.75z"/>
	<path d="M5.25,5.25h-4.5v-4.5h4.5V5.25z M1.25,4.75h3.5v-3.5h-3.5V4.75z"/>
	<path d="M-5.75-5.75h-2.5v-2.5h2.5V-5.75z M-7.75-6.25h1.5v-1.5h-1.5V-6.25z"/>
	<path d="M8.25-5.75h-2.5v-2.5h2.5V-5.75z M6.25-6.25h1.5v-1.5h-1.5V-6.25z"/>
	<path d="M-5.75,8.25h-2.5v-2.5h2.5V8.25z M-7.75,7.75h1.5v-1.5h-1.5V7.75z"/>
	<path d="M8.25,8.25h-2.5v-2.5h2.5V8.25z M6.25,7.75h1.5v-1.5h-1.5V7.75z"/>
</g>
</svg>
