<?xml version="1.0" encoding="utf-8"?>
<!-- Generator: Adobe Illustrator 23.0.3, SVG Export Plug-In . SVG Version: 6.00 Build 0)  -->
<svg version="1.1" id="レイヤー_1" xmlns="http://www.w3.org/2000/svg" xmlns:xlink="http://www.w3.org/1999/xlink" x="0px"
	 y="0px" viewBox="0 0 960 540" style="enable-background:new 0 0 960 540;" xml:space="preserve">
<g>
	<polygon points="-7.5,-3.25 -8.5,-3.25 -8.5,-8.25 -3.5,-8.25 -3.5,-7.25 -7.5,-7.25 	"/>
	<polygon points="-3.5,8.75 -8.5,8.75 -8.5,3.75 -7.5,3.75 -7.5,7.75 -3.5,7.75 	"/>
	<polygon points="8.5,8.75 3.5,8.75 3.5,7.75 7.5,7.75 7.5,3.75 8.5,3.75 	"/>
	<polygon points="8.5,-3.25 7.5,-3.25 7.5,-7.25 3.5,-7.25 3.5,-8.25 8.5,-8.25 	"/>
	<rect x="-0.5" y="-16.75" width="1" height="9"/>
	<rect x="8" y="-0.25" width="9" height="1"/>
	<rect x="-0.5" y="7.75" width="1" height="9"/>
	<rect x="-17" y="-0.25" width="9" height="1"/>
	<path d="M1.5,1.75h-3v-3h3V1.75z M-0.5,0.75h1v-1h-1V0.75z"/>
	<path d="M1.5,1.75h-3v-3h3V1.75z M-0.5,0.75h1v-1h-1V0.75z"/>
	<path d="M1.5,1.75h-3v-3h3V1.75z M-0.5,0.75h1v-1h-1V0.75z"/>
	<path d="M1.5,1.75h-3v-3h3V1.75z M-0.5,0.75h1v-1h-1V0.75z"/>
	<path d="M1.5,1.75h-3v-3h3V1.75z M-0.5,0.75h1v-1h-1V0.75z"/>
</g>
</svg>
