<?xml version="1.0" encoding="utf-8"?>
<!-- Generator: Adobe Illustrator 23.0.3, SVG Export Plug-In . SVG Version: 6.00 Build 0)  -->
<svg version="1.1" id="レイヤー_1" xmlns="http://www.w3.org/2000/svg" xmlns:xlink="http://www.w3.org/1999/xlink" x="0px"
	 y="0px" viewBox="0 0 960 540" style="enable-background:new 0 0 960 540;" xml:space="preserve">
<g>
	<path d="M-0.75-4.75h-2.5v-2.5h2.5V-4.75z M-2.75-5.25h1.5v-1.5h-1.5V-5.25z"/>
	<path d="M3.25-4.75h-2.5v-2.5h2.5V-4.75z M1.25-5.25h1.5v-1.5h-1.5V-5.25z"/>
	<path d="M-0.75,7.25h-2.5v-2.5h2.5V7.25z M-2.75,6.75h1.5v-1.5h-1.5V6.75z"/>
	<path d="M3.25,7.25h-2.5v-2.5h2.5V7.25z M1.25,6.75h1.5v-1.5h-1.5V6.75z"/>
	<path d="M7.25-0.75h-2.5v-2.5h2.5V-0.75z M5.25-1.25h1.5v-1.5h-1.5V-1.25z"/>
	<path d="M7.25,3.25h-2.5v-2.5h2.5V3.25z M5.25,2.75h1.5v-1.5h-1.5V2.75z"/>
	<path d="M-4.75-0.75h-2.5v-2.5h2.5V-0.75z M-6.75-1.25h1.5v-1.5h-1.5V-1.25z"/>
	<path d="M-4.75,3.25h-2.5v-2.5h2.5V3.25z M-6.75,2.75h1.5v-1.5h-1.5V2.75z"/>
	<path d="M1.25,1.25h-2.5v-2.5h2.5V1.25z M-0.75,0.75h1.5v-1.5h-1.5V0.75z"/>
</g>
</svg>
