<?xml version="1.0" encoding="utf-8"?>
<!-- Generator: Adobe Illustrator 23.0.3, SVG Export Plug-In . SVG Version: 6.00 Build 0)  -->
<svg version="1.1" id="レイヤー_1" xmlns="http://www.w3.org/2000/svg" xmlns:xlink="http://www.w3.org/1999/xlink" x="0px"
	 y="0px" viewBox="0 0 960 540" style="enable-background:new 0 0 960 540;" xml:space="preserve">
<g>
	<path d="M-2,2.25c-1.24,0-2.25-1.01-2.25-2.25S-3.24-2.25-2-2.25S0.25-1.24,0.25,0S-0.76,2.25-2,2.25z M-2-1.75
		c-0.96,0-1.75,0.79-1.75,1.75S-2.96,1.75-2,1.75S-0.25,0.96-0.25,0S-1.03-1.75-2-1.75z"/>
	<path d="M-2,11.67L-13.67,0L-2-11.67L9.67,0L-2,11.67z M-12.96,0L-2,10.96L8.96,0L-2-10.96L-12.96,0z"/>
	<rect x="-2.25" y="-0.25" width="17" height="0.5"/>
</g>
</svg>
