<?xml version="1.0" encoding="utf-8"?>
<!-- Generator: Adobe Illustrator 23.0.3, SVG Export Plug-In . SVG Version: 6.00 Build 0)  -->
<svg version="1.1" id="レイヤー_1" xmlns="http://www.w3.org/2000/svg" xmlns:xlink="http://www.w3.org/1999/xlink" x="0px"
	 y="0px" viewBox="0 0 960 540" style="enable-background:new 0 0 960 540;" xml:space="preserve">
<g>
	<polygon points="-7.5,-3.5 -8.5,-3.5 -8.5,-8.5 -3.5,-8.5 -3.5,-7.5 -7.5,-7.5 	"/>
	<polygon points="-3.5,8.5 -8.5,8.5 -8.5,3.5 -7.5,3.5 -7.5,7.5 -3.5,7.5 	"/>
	<polygon points="8.5,8.5 3.5,8.5 3.5,7.5 7.5,7.5 7.5,3.5 8.5,3.5 	"/>
	<polygon points="8.5,-3.5 7.5,-3.5 7.5,-7.5 3.5,-7.5 3.5,-8.5 8.5,-8.5 	"/>
	<path d="M4.5,4.5h-9v-9h9V4.5z M-3.5,3.5h7v-7h-7V3.5z"/>
</g>
</svg>
