<?xml version="1.0" encoding="utf-8"?>
<!-- Generator: Adobe Illustrator 23.0.3, SVG Export Plug-In . SVG Version: 6.00 Build 0)  -->
<svg version="1.1" id="レイヤー_1" xmlns="http://www.w3.org/2000/svg" xmlns:xlink="http://www.w3.org/1999/xlink" x="0px"
	 y="0px" viewBox="0 0 960 540" style="enable-background:new 0 0 960 540;" xml:space="preserve">
<g>
	<path d="M-3.5-3.5h-5v-5h5V-3.5z M-7.5-4.5h3v-3h-3V-4.5z"/>
	<path d="M8.5-3.5h-5v-5h5V-3.5z M4.5-4.5h3v-3h-3V-4.5z"/>
	<path d="M-3.5,8.5h-5v-5h5V8.5z M-7.5,7.5h3v-3h-3V7.5z"/>
	<path d="M8.5,8.5h-5v-5h5V8.5z M4.5,7.5h3v-3h-3V7.5z"/>
	<path d="M0.5,0.5h-5v-5h5V0.5z M-3.5-0.5h3v-3h-3V-0.5z"/>
	<rect x="-10.5" y="-13.33" transform="matrix(0.7071 -0.7071 0.7071 0.7071 4.1421 -10)" width="1" height="6.66"/>
	<rect x="9.5" y="6.67" transform="matrix(0.7071 -0.7071 0.7071 0.7071 -4.1421 10)" width="1" height="6.66"/>
	<rect x="-13.28" y="9.63" transform="matrix(0.7071 -0.7071 0.7071 0.7071 -10.125 -4.1939)" width="6.3" height="1"/>
	<rect x="6.85" y="-10.5" transform="matrix(0.7071 -0.7071 0.7071 0.7071 10 4.1421)" width="6.3" height="1"/>
</g>
</svg>
