<?xml version="1.0" encoding="utf-8"?>
<!-- Generator: Adobe Illustrator 23.0.3, SVG Export Plug-In . SVG Version: 6.00 Build 0)  -->
<svg version="1.1" id="レイヤー_1" xmlns="http://www.w3.org/2000/svg" xmlns:xlink="http://www.w3.org/1999/xlink" x="0px"
	 y="0px" viewBox="0 0 960 540" style="enable-background:new 0 0 960 540;" xml:space="preserve">
<g>
	<path d="M0,5c-2.48,0-4.5-2.02-4.5-4.5S-2.48-4,0-4s4.5,2.02,4.5,4.5S2.48,5,0,5z M0-3c-1.93,0-3.5,1.57-3.5,3.5S-1.93,4,0,4
		s3.5-1.57,3.5-3.5S1.93-3,0-3z"/>
	<circle cx="0" cy="-7.5" r="2"/>
	<path d="M0-11c-0.83,0-1.5-0.67-1.5-1.5S-0.83-14,0-14s1.5,0.67,1.5,1.5S0.83-11,0-11z M0-13c-0.28,0-0.5,0.22-0.5,0.5
		S-0.28-12,0-12s0.5-0.22,0.5-0.5S0.28-13,0-13z"/>
	<circle cx="-5.66" cy="6.16" r="2"/>
	<circle cx="8" cy="0.5" r="2"/>
	<path d="M0,9c-4.69,0-8.5-3.81-8.5-8.5S-4.69-8,0-8s8.5,3.81,8.5,8.5S4.69,9,0,9z M0-7c-4.14,0-7.5,3.36-7.5,7.5S-4.14,8,0,8
		s7.5-3.36,7.5-7.5S4.14-7,0-7z"/>
	<path d="M0,14c-7.44,0-13.5-6.06-13.5-13.5S-7.44-13,0-13S13.5-6.94,13.5,0.5S7.44,14,0,14z M0-12c-6.89,0-12.5,5.61-12.5,12.5
		S-6.89,13,0,13S12.5,7.39,12.5,0.5S6.89-12,0-12z"/>
</g>
</svg>
