<?xml version="1.0" encoding="utf-8"?>
<!-- Generator: Adobe Illustrator 23.0.3, SVG Export Plug-In . SVG Version: 6.00 Build 0)  -->
<svg version="1.1" id="レイヤー_1" xmlns="http://www.w3.org/2000/svg" xmlns:xlink="http://www.w3.org/1999/xlink" x="0px"
	 y="0px" viewBox="0 0 960 540" style="enable-background:new 0 0 960 540;" xml:space="preserve">
<g>
	<g>
		<path d="M-2.6,9.75h-8.66l4.33-7.5L-2.6,9.75z M-9.53,8.75h5.2l-2.6-4.5L-9.53,8.75z"/>
		<path d="M4.33-2.25h-8.66L0-9.75L4.33-2.25z M-2.6-3.25h5.2L0-7.75L-2.6-3.25z"/>
		<path d="M11.26,9.75H2.6l4.33-7.5L11.26,9.75z M4.33,8.75h5.2l-2.6-4.5L4.33,8.75z"/>
	</g>
	<path d="M0,5.75c-1.38,0-2.5-1.12-2.5-2.5s1.12-2.5,2.5-2.5s2.5,1.12,2.5,2.5S1.38,5.75,0,5.75z M0,1.75c-0.83,0-1.5,0.67-1.5,1.5
		s0.67,1.5,1.5,1.5s1.5-0.67,1.5-1.5S0.83,1.75,0,1.75z"/>
</g>
</svg>
