<?xml version="1.0" encoding="utf-8"?>
<!-- Generator: Adobe Illustrator 23.0.3, SVG Export Plug-In . SVG Version: 6.00 Build 0)  -->
<svg version="1.1" id="レイヤー_1" xmlns="http://www.w3.org/2000/svg" xmlns:xlink="http://www.w3.org/1999/xlink" x="0px"
	 y="0px" viewBox="0 0 960 540" style="enable-background:new 0 0 960 540;" xml:space="preserve">
<g>
	<rect x="-0.5" y="-10.44" width="1" height="3"/>
	<rect x="-2.37" y="-10.24" transform="matrix(0.9781 -0.208 0.208 0.9781 1.7771 -0.5803)" width="1" height="3"/>
	<rect x="-4.16" y="-9.66" transform="matrix(0.9135 -0.4068 0.4068 0.9135 3.0025 -2.1947)" width="1" height="3"/>
	<rect x="-5.79" y="-8.72" transform="matrix(0.8089 -0.5879 0.5879 0.8089 3.233 -4.4892)" width="1" height="3"/>
	<rect x="-9.06" y="-4.22" transform="matrix(0.3091 -0.951 0.951 0.3091 -3.3285 -10.0187)" width="1" height="3"/>
	<rect x="-9.45" y="-2.38" transform="matrix(0.1045 -0.9945 0.9945 0.1045 -7.142 -9.6881)" width="1" height="3"/>
	<rect x="-10.45" y="0.5" transform="matrix(0.9945 -0.1045 0.1045 0.9945 -0.154 -0.9301)" width="3" height="1"/>
	<rect x="-10.06" y="2.34" transform="matrix(0.951 -0.3092 0.3092 0.951 -1.2987 -2.5071)" width="3" height="1"/>
	<rect x="-5.16" y="7.78" transform="matrix(0.4067 -0.9135 0.9135 0.4067 -9.7402 1.5709)" width="3" height="1"/>
	<rect x="-3.37" y="8.37" transform="matrix(0.2079 -0.9781 0.9781 0.2079 -10.1542 5.1923)" width="3" height="1"/>
	<rect x="3.16" y="6.78" transform="matrix(0.9135 -0.4068 0.4068 0.9135 -3.0535 2.2055)" width="1" height="3"/>
	<rect x="4.79" y="5.84" transform="matrix(0.8089 -0.5879 0.5879 0.8089 -3.3068 4.5132)" width="1" height="3"/>
	<rect x="6.19" y="4.58" transform="matrix(0.6691 -0.7432 0.7432 0.6691 -2.309 6.9841)" width="1" height="3"/>
	<rect x="7.29" y="3.06" transform="matrix(0.5 -0.866 0.866 0.5 -0.0543 9.0314)" width="1" height="3"/>
	<rect x="8.06" y="1.34" transform="matrix(0.3091 -0.951 0.951 0.3091 3.2092 10.1054)" width="1" height="3"/>
	<rect x="8.45" y="-0.5" transform="matrix(0.1045 -0.9945 0.9945 0.1045 7.0172 9.8005)" width="1" height="3"/>
	<rect x="6.29" y="-4.94" transform="matrix(0.8661 -0.4999 0.4999 0.8661 3.2621 3.3022)" width="3" height="1"/>
	<rect x="5.19" y="-6.46" transform="matrix(0.7432 -0.669 0.669 0.7432 5.7043 2.9446)" width="3" height="1"/>
	<rect x="3.79" y="-7.72" transform="matrix(0.5881 -0.8088 0.8088 0.5881 8.0177 1.3051)" width="3" height="1"/>
	<path d="M0,2.77l-2.71-2.71L0-2.64l2.71,2.71L0,2.77z M-1.29,0.06L0,1.36l1.29-1.29L0-1.23L-1.29,0.06z"/>
	<polygon points="1.06,-2.41 0,-3.47 -1.06,-2.41 -1.77,-3.12 0,-4.89 1.77,-3.12 	"/>
	<polygon points="-3.18,1.83 -4.95,0.06 -3.18,-1.7 -2.48,-1 -3.54,0.06 -2.48,1.12 	"/>
	<polygon points="0,5.01 -1.77,3.24 -1.06,2.54 0,3.6 1.06,2.54 1.77,3.24 	"/>
	<polygon points="3.18,1.83 2.48,1.12 3.54,0.06 2.48,-1 3.18,-1.7 4.95,0.06 	"/>
</g>
</svg>
