<?xml version="1.0" encoding="utf-8"?>
<!-- Generator: Adobe Illustrator 23.0.3, SVG Export Plug-In . SVG Version: 6.00 Build 0)  -->
<svg version="1.1" id="レイヤー_1" xmlns="http://www.w3.org/2000/svg" xmlns:xlink="http://www.w3.org/1999/xlink" x="0px"
	 y="0px" viewBox="0 0 960 540" style="enable-background:new 0 0 960 540;" xml:space="preserve">
<g>
	<path d="M0-3.54l-2.12-2.12L0-7.78l2.12,2.12L0-3.54z M-0.71-5.66L0-4.95l0.71-0.71L0-6.36L-0.71-5.66z"/>
	<path d="M-5.66,6.36L-12.02,0l6.36-6.36L0.71,0L-5.66,6.36z M-10.61,0l4.95,4.95L-0.71,0l-4.95-4.95L-10.61,0z"/>
	<path d="M5.66,6.36L-0.71,0l6.36-6.36L12.02,0L5.66,6.36z M0.71,0l4.95,4.95L10.61,0L5.66-4.95L0.71,0z"/>
	<path d="M0,7.78l-2.12-2.12L0,3.54l2.12,2.12L0,7.78z M-0.71,5.66L0,6.36l0.71-0.71L0,4.95L-0.71,5.66z"/>
</g>
</svg>
