<?xml version="1.0" encoding="utf-8"?>
<!-- Generator: Adobe Illustrator 23.0.3, SVG Export Plug-In . SVG Version: 6.00 Build 0)  -->
<svg version="1.1" id="レイヤー_1" xmlns="http://www.w3.org/2000/svg" xmlns:xlink="http://www.w3.org/1999/xlink" x="0px"
	 y="0px" viewBox="0 0 960 540" style="enable-background:new 0 0 960 540;" xml:space="preserve">
<g>
	<path d="M-0.5-8.5h-3v-3h3V-8.5z M-2.5-9.5h1v-1h-1V-9.5z"/>
	<path d="M3.5-8.5h-3v-3h3V-8.5z M1.5-9.5h1v-1h-1V-9.5z"/>
	<path d="M-0.5-4.5h-3v-3h3V-4.5z M-2.5-5.5h1v-1h-1V-5.5z"/>
	<path d="M3.5-4.5h-3v-3h3V-4.5z M1.5-5.5h1v-1h-1V-5.5z"/>
	<path d="M-0.5,7.5h-3v-3h3V7.5z M-2.5,6.5h1v-1h-1V6.5z"/>
	<path d="M3.5,7.5h-3v-3h3V7.5z M1.5,6.5h1v-1h-1V6.5z"/>
	<path d="M-0.5,11.5h-3v-3h3V11.5z M-2.5,10.5h1v-1h-1V10.5z"/>
	<path d="M3.5,11.5h-3v-3h3V11.5z M1.5,10.5h1v-1h-1V10.5z"/>
	<path d="M11.5-0.5h-3v-3h3V-0.5z M9.5-1.5h1v-1h-1V-1.5z"/>
	<path d="M11.5,3.5h-3v-3h3V3.5z M9.5,2.5h1v-1h-1V2.5z"/>
	<path d="M7.5-0.5h-3v-3h3V-0.5z M5.5-1.5h1v-1h-1V-1.5z"/>
	<path d="M7.5,3.5h-3v-3h3V3.5z M5.5,2.5h1v-1h-1V2.5z"/>
	<path d="M-4.5-0.5h-3v-3h3V-0.5z M-6.5-1.5h1v-1h-1V-1.5z"/>
	<path d="M-4.5,3.5h-3v-3h3V3.5z M-6.5,2.5h1v-1h-1V2.5z"/>
	<path d="M-8.5-0.5h-3v-3h3V-0.5z M-10.5-1.5h1v-1h-1V-1.5z"/>
	<path d="M-8.5,3.5h-3v-3h3V3.5z M-10.5,2.5h1v-1h-1V2.5z"/>
</g>
</svg>
