<?xml version="1.0" encoding="utf-8"?>
<!-- Generator: Adobe Illustrator 23.0.3, SVG Export Plug-In . SVG Version: 6.00 Build 0)  -->
<svg version="1.1" id="レイヤー_1" xmlns="http://www.w3.org/2000/svg" xmlns:xlink="http://www.w3.org/1999/xlink" x="0px"
	 y="0px" viewBox="0 0 960 540" style="enable-background:new 0 0 960 540;" xml:space="preserve">
<g>
	<path d="M-3.75-3.75h-4.5v-4.5h4.5V-3.75z M-7.75-4.25h3.5v-3.5h-3.5V-4.25z"/>
	<path d="M8.25-3.75h-4.5v-4.5h4.5V-3.75z M4.25-4.25h3.5v-3.5h-3.5V-4.25z"/>
	<path d="M-3.75,8.25h-4.5v-4.5h4.5V8.25z M-7.75,7.75h3.5v-3.5h-3.5V7.75z"/>
	<path d="M8.25,8.25h-4.5v-4.5h4.5V8.25z M4.25,7.75h3.5v-3.5h-3.5V7.75z"/>
	<path d="M0.25,0.25h-4.5v-4.5h4.5V0.25z M-3.75-0.25h3.5v-3.5h-3.5V-0.25z"/>
	<rect x="-10.25" y="-13.08" transform="matrix(0.7071 -0.7071 0.7071 0.7071 4.1421 -10)" width="0.5" height="6.16"/>
	<rect x="9.75" y="6.92" transform="matrix(0.7071 -0.7071 0.7071 0.7071 -4.1421 10)" width="0.5" height="6.16"/>
	<rect x="-13.03" y="9.88" transform="matrix(0.7071 -0.7071 0.7071 0.7071 -10.125 -4.1939)" width="5.8" height="0.5"/>
	<rect x="7.1" y="-10.25" transform="matrix(0.7071 -0.7071 0.7071 0.7071 10 4.1421)" width="5.8" height="0.5"/>
</g>
</svg>
