<?xml version="1.0" encoding="utf-8"?>
<!-- Generator: Adobe Illustrator 23.0.3, SVG Export Plug-In . SVG Version: 6.00 Build 0)  -->
<svg version="1.1" id="レイヤー_1" xmlns="http://www.w3.org/2000/svg" xmlns:xlink="http://www.w3.org/1999/xlink" x="0px"
	 y="0px" viewBox="0 0 960 540" style="enable-background:new 0 0 960 540;" xml:space="preserve">
<g>
	<path d="M0,5.25c-2.34,0-4.25-1.91-4.25-4.25S-2.34-3.25,0-3.25S4.25-1.34,4.25,1S2.34,5.25,0,5.25z M0-2.75
		c-2.07,0-3.75,1.68-3.75,3.75S-2.07,4.75,0,4.75S3.75,3.07,3.75,1S2.07-2.75,0-2.75z"/>
	<circle cx="0" cy="-7" r="2"/>
	<circle cx="0" cy="-12" r="1"/>
	<circle cx="-5.66" cy="6.66" r="2"/>
	<circle cx="8" cy="1" r="2"/>
	<path d="M0,9.13c-4.48,0-8.12-3.65-8.12-8.12S-4.48-7.12,0-7.12S8.12-3.48,8.12,1S4.48,9.13,0,9.13z M0-6.87
		c-4.34,0-7.88,3.53-7.88,7.88S-4.34,8.88,0,8.88S7.88,5.34,7.88,1S4.34-6.87,0-6.87z"/>
	<path d="M0,14.13c-7.24,0-13.12-5.89-13.12-13.12S-7.24-12.12,0-12.12S13.12-6.24,13.12,1S7.24,14.13,0,14.13z M0-11.87
		C-7.1-11.87-12.88-6.1-12.88,1S-7.1,13.88,0,13.88S12.88,8.1,12.88,1S7.1-11.87,0-11.87z"/>
</g>
</svg>
