<?xml version="1.0" encoding="utf-8"?>
<!-- Generator: Adobe Illustrator 23.0.3, SVG Export Plug-In . SVG Version: 6.00 Build 0)  -->
<svg version="1.1" id="レイヤー_1" xmlns="http://www.w3.org/2000/svg" xmlns:xlink="http://www.w3.org/1999/xlink" x="0px"
	 y="0px" viewBox="0 0 960 540" style="enable-background:new 0 0 960 540;" xml:space="preserve">
<g>
	<rect x="1.23" y="-5.48" transform="matrix(0.7071 -0.7071 0.7071 0.7071 5.3034 2.3432)" width="8.5" height="0.5"/>
	<rect x="5.23" y="1.13" transform="matrix(0.7071 -0.7071 0.7071 0.7071 -2.1968 5.4499)" width="0.5" height="8.5"/>
	<rect x="-9.73" y="5.48" transform="matrix(0.7071 -0.7071 0.7071 0.7071 -5.657 -2.1968)" width="8.5" height="0.5"/>
	<rect x="-5.38" y="-9.48" transform="matrix(0.7071 -0.7071 0.7071 0.7071 2.1967 -5.157)" width="0.5" height="8.5"/>
	<path d="M0.18,1.84l-1.77-1.77l1.77-1.77l1.77,1.77L0.18,1.84z M-0.88,0.07l1.06,1.06l1.06-1.06L0.18-0.99L-0.88,0.07z"/>
	<rect x="-4.25" y="-12.25" width="8.5" height="0.5"/>
	<rect x="-4.25" y="11.75" width="8.5" height="0.5"/>
	<rect x="11.75" y="-4.25" width="0.5" height="8.5"/>
	<rect x="-12.25" y="-4.25" width="0.5" height="8.5"/>
</g>
</svg>
