<?xml version="1.0" encoding="utf-8"?>
<!-- Generator: Adobe Illustrator 23.0.3, SVG Export Plug-In . SVG Version: 6.00 Build 0)  -->
<svg version="1.1" id="レイヤー_1" xmlns="http://www.w3.org/2000/svg" xmlns:xlink="http://www.w3.org/1999/xlink" x="0px"
	 y="0px" viewBox="0 0 960 540" style="enable-background:new 0 0 960 540;" xml:space="preserve">
<g>
	<path d="M1.25-6.75h-2.5v-2.5h2.5V-6.75z M-0.75-7.25h1.5v-1.5h-1.5V-7.25z"/>
	<path d="M1.25,9.25h-2.5v-2.5h2.5V9.25z M-0.75,8.75h1.5v-1.5h-1.5V8.75z"/>
	<path d="M9.25,1.25h-2.5v-2.5h2.5V1.25z M7.25,0.75h1.5v-1.5h-1.5V0.75z"/>
	<path d="M-6.75,1.25h-2.5v-2.5h2.5V1.25z M-8.75,0.75h1.5v-1.5h-1.5V0.75z"/>
	<path d="M1.25,1.25h-2.5v-2.5h2.5V1.25z M-0.75,0.75h1.5v-1.5h-1.5V0.75z"/>
	<rect x="-0.25" y="-6.25" width="0.5" height="4.5"/>
	<rect x="-0.25" y="1.75" width="0.5" height="4.5"/>
	<rect x="1.75" y="-0.25" width="4.5" height="0.5"/>
	<rect x="-6.25" y="-0.25" width="4.5" height="0.5"/>
	<rect x="1.58" y="-3.08" transform="matrix(0.7071 -0.7071 0.7071 0.7071 2.8284 1.1715)" width="2.5" height="0.5"/>
	<rect x="-4.08" y="2.58" transform="matrix(0.7071 -0.7071 0.7071 0.7071 -2.8284 -1.1715)" width="2.5" height="0.5"/>
	<rect x="2.58" y="1.58" transform="matrix(0.7071 -0.7071 0.7071 0.7071 -1.1715 2.8284)" width="0.5" height="2.5"/>
	<rect x="-3.08" y="-4.08" transform="matrix(0.7071 -0.7071 0.7071 0.7071 1.1715 -2.8284)" width="0.5" height="2.5"/>
	<path d="M-4.75-4.75h-4.5v-4.5h4.5V-4.75z M-8.75-5.25h3.5v-3.5h-3.5V-5.25z"/>
	<path d="M9.25-4.75h-4.5v-4.5h4.5V-4.75z M5.25-5.25h3.5v-3.5h-3.5V-5.25z"/>
	<path d="M-4.75,9.25h-4.5v-4.5h4.5V9.25z M-8.75,8.75h3.5v-3.5h-3.5V8.75z"/>
	<path d="M9.25,9.25h-4.5v-4.5h4.5V9.25z M5.25,8.75h3.5v-3.5h-3.5V8.75z"/>
</g>
</svg>
