<?xml version="1.0" encoding="utf-8"?>
<!-- Generator: Adobe Illustrator 23.0.3, SVG Export Plug-In . SVG Version: 6.00 Build 0)  -->
<svg version="1.1" id="レイヤー_1" xmlns="http://www.w3.org/2000/svg" xmlns:xlink="http://www.w3.org/1999/xlink" x="0px"
	 y="0px" viewBox="0 0 960 540" style="enable-background:new 0 0 960 540;" xml:space="preserve">
<g>
	<path d="M0,2.25c-1.24,0-2.25-1.01-2.25-2.25S-1.24-2.25,0-2.25S2.25-1.24,2.25,0S1.24,2.25,0,2.25z M0-1.75
		c-0.96,0-1.75,0.79-1.75,1.75S-0.96,1.75,0,1.75S1.75,0.96,1.75,0S0.96-1.75,0-1.75z"/>
	<path d="M0,11.67L-11.67,0L0-11.67L11.67,0L0,11.67z M-10.96,0L0,10.96L10.96,0L0-10.96L-10.96,0z"/>
</g>
</svg>
