<?xml version="1.0" encoding="utf-8"?>
<!-- Generator: Adobe Illustrator 23.0.3, SVG Export Plug-In . SVG Version: 6.00 Build 0)  -->
<svg version="1.1" id="レイヤー_1" xmlns="http://www.w3.org/2000/svg" xmlns:xlink="http://www.w3.org/1999/xlink" x="0px"
	 y="0px" viewBox="0 0 960 540" style="enable-background:new 0 0 960 540;" xml:space="preserve">
<g>
	<rect x="-1.25" y="-10.25" width="0.5" height="4.5"/>
	<rect x="0.75" y="-10.25" width="0.5" height="4.5"/>
	<rect x="-1.25" y="5.75" width="0.5" height="4.5"/>
	<rect x="0.75" y="5.75" width="0.5" height="4.5"/>
	<rect x="5.75" y="-1.25" width="4.5" height="0.5"/>
	<rect x="5.75" y="0.75" width="4.5" height="0.5"/>
	<rect x="-10.25" y="-1.25" width="4.5" height="0.5"/>
	<rect x="-10.25" y="0.75" width="4.5" height="0.5"/>
	<polygon points="-7.75,-3.75 -8.25,-3.75 -8.25,-8.25 -3.75,-8.25 -3.75,-7.75 -7.75,-7.75 	"/>
	<polygon points="-3.75,8.25 -8.25,8.25 -8.25,3.75 -7.75,3.75 -7.75,7.75 -3.75,7.75 	"/>
	<polygon points="8.25,8.25 3.75,8.25 3.75,7.75 7.75,7.75 7.75,3.75 8.25,3.75 	"/>
	<polygon points="8.25,-3.75 7.75,-3.75 7.75,-7.75 3.75,-7.75 3.75,-8.25 8.25,-8.25 	"/>
	<path d="M-0.75-0.75h-2.5v-2.5h2.5V-0.75z M-2.75-1.25h1.5v-1.5h-1.5V-1.25z"/>
	<path d="M3.25-0.75h-2.5v-2.5h2.5V-0.75z M1.25-1.25h1.5v-1.5h-1.5V-1.25z"/>
	<path d="M-0.75,3.25h-2.5v-2.5h2.5V3.25z M-2.75,2.75h1.5v-1.5h-1.5V2.75z"/>
	<path d="M3.25,3.25h-2.5v-2.5h2.5V3.25z M1.25,2.75h1.5v-1.5h-1.5V2.75z"/>
</g>
</svg>
