<?xml version="1.0" encoding="utf-8"?>
<!-- Generator: Adobe Illustrator 23.0.3, SVG Export Plug-In . SVG Version: 6.00 Build 0)  -->
<svg version="1.1" id="レイヤー_1" xmlns="http://www.w3.org/2000/svg" xmlns:xlink="http://www.w3.org/1999/xlink" x="0px"
	 y="0px" viewBox="0 0 960 540" style="enable-background:new 0 0 960 540;" xml:space="preserve">
<g>
	<path d="M-0.75-0.75h-4.5v-4.5h4.5V-0.75z M-4.75-1.25h3.5v-3.5h-3.5V-1.25z"/>
	<path d="M5.25-0.75h-4.5v-4.5h4.5V-0.75z M1.25-1.25h3.5v-3.5h-3.5V-1.25z"/>
	<path d="M-0.75,5.25h-4.5v-4.5h4.5V5.25z M-4.75,4.75h3.5v-3.5h-3.5V4.75z"/>
	<path d="M5.25,5.25h-4.5v-4.5h4.5V5.25z M1.25,4.75h3.5v-3.5h-3.5V4.75z"/>
	<path d="M-6.75-6.75h-2.5v-2.5h2.5V-6.75z M-8.75-7.25h1.5v-1.5h-1.5V-7.25z"/>
	<path d="M9.25-6.75h-2.5v-2.5h2.5V-6.75z M7.25-7.25h1.5v-1.5h-1.5V-7.25z"/>
	<path d="M-6.75,9.25h-2.5v-2.5h2.5V9.25z M-8.75,8.75h1.5v-1.5h-1.5V8.75z"/>
	<path d="M9.25,9.25h-2.5v-2.5h2.5V9.25z M7.25,8.75h1.5v-1.5h-1.5V8.75z"/>
	<rect x="-6" y="-8.25" width="8.5" height="0.5"/>
	<rect x="-2.5" y="7.75" width="8.5" height="0.5"/>
	<rect x="7.75" y="-6" width="0.5" height="8.5"/>
	<rect x="-8.25" y="-2.5" width="0.5" height="8.5"/>
</g>
</svg>
