<?xml version="1.0" encoding="utf-8"?>
<!-- Generator: Adobe Illustrator 23.0.3, SVG Export Plug-In . SVG Version: 6.00 Build 0)  -->
<svg version="1.1" id="レイヤー_1" xmlns="http://www.w3.org/2000/svg" xmlns:xlink="http://www.w3.org/1999/xlink" x="0px"
	 y="0px" viewBox="0 0 960 540" style="enable-background:new 0 0 960 540;" xml:space="preserve">
<g>
	<rect x="-0.25" y="-10.16" width="0.5" height="2.5"/>
	<rect x="-2.12" y="-9.97" transform="matrix(0.9781 -0.208 0.208 0.9781 1.7726 -0.58)" width="0.5" height="2.5"/>
	<rect x="-3.91" y="-9.39" transform="matrix(0.9135 -0.4069 0.4069 0.9135 2.9938 -2.1936)" width="0.5" height="2.5"/>
	<rect x="-5.54" y="-8.45" transform="matrix(0.809 -0.5879 0.5879 0.809 3.2191 -4.4844)" width="0.5" height="2.5"/>
	<rect x="-8.81" y="-3.95" transform="matrix(0.309 -0.9511 0.9511 0.309 -3.3518 -10.0032)" width="0.5" height="2.5"/>
	<rect x="-9.2" y="-2.1" transform="matrix(0.1045 -0.9945 0.9945 0.1045 -7.1655 -9.6671)" width="0.5" height="2.5"/>
	<rect x="-10.2" y="0.78" transform="matrix(0.9945 -0.1044 0.1044 0.9945 -0.1562 -0.9291)" width="2.5" height="0.5"/>
	<rect x="-9.81" y="2.62" transform="matrix(0.9512 -0.3086 0.3086 0.9512 -1.3027 -2.5015)" width="2.5" height="0.5"/>
	<rect x="-4.91" y="8.06" transform="matrix(0.4073 -0.9133 0.9133 0.4073 -9.7573 1.5809)" width="2.5" height="0.5"/>
	<rect x="-3.12" y="8.64" transform="matrix(0.2081 -0.9781 0.9781 0.2081 -10.1764 5.2092)" width="2.5" height="0.5"/>
	<rect x="3.41" y="7.06" transform="matrix(0.9135 -0.4069 0.4069 0.9135 -3.0639 2.2085)" width="0.5" height="2.5"/>
	<rect x="5.04" y="6.12" transform="matrix(0.809 -0.5879 0.5879 0.809 -3.3205 4.5174)" width="0.5" height="2.5"/>
	<rect x="6.44" y="4.86" transform="matrix(0.6691 -0.7431 0.7431 0.6691 -2.3264 6.9916)" width="0.5" height="2.5"/>
	<rect x="7.54" y="3.34" transform="matrix(0.5001 -0.866 0.866 0.5001 -0.0751 9.0422)" width="0.5" height="2.5"/>
	<rect x="8.31" y="1.62" transform="matrix(0.309 -0.9511 0.9511 0.309 3.1879 10.1223)" width="0.5" height="2.5"/>
	<rect x="8.7" y="-0.22" transform="matrix(0.1045 -0.9945 0.9945 0.1045 6.9941 9.8215)" width="0.5" height="2.5"/>
	<rect x="6.54" y="-4.66" transform="matrix(0.8658 -0.5003 0.5003 0.8658 3.2542 3.3076)" width="2.5" height="0.5"/>
	<rect x="5.44" y="-6.19" transform="matrix(0.7432 -0.669 0.669 0.7432 5.6886 2.9506)" width="2.5" height="0.5"/>
	<rect x="4.04" y="-7.44" transform="matrix(0.5881 -0.8088 0.8088 0.5881 7.9987 1.3147)" width="2.5" height="0.5"/>
	<path d="M0,3.27l-3.18-3.18L0-3.1l3.18,3.18L0,3.27z M-2.48,0.09L0,2.56l2.48-2.48L0-2.39L-2.48,0.09z"/>
	<polygon points="1.06,-2.74 0,-3.8 -1.06,-2.74 -1.41,-3.1 0,-4.51 1.41,-3.1 	"/>
	<polygon points="-3.18,1.5 -4.6,0.09 -3.18,-1.33 -2.83,-0.97 -3.89,0.09 -2.83,1.15 	"/>
	<polygon points="0,4.68 -1.41,3.27 -1.06,2.91 0,3.98 1.06,2.91 1.41,3.27 	"/>
	<polygon points="3.18,1.5 2.83,1.15 3.89,0.09 2.83,-0.97 3.18,-1.33 4.6,0.09 	"/>
</g>
</svg>
