<?xml version="1.0" encoding="utf-8"?>
<!-- Generator: Adobe Illustrator 23.0.3, SVG Export Plug-In . SVG Version: 6.00 Build 0)  -->
<svg version="1.1" id="レイヤー_1" xmlns="http://www.w3.org/2000/svg" xmlns:xlink="http://www.w3.org/1999/xlink" x="0px"
	 y="0px" viewBox="0 0 960 540" style="enable-background:new 0 0 960 540;" xml:space="preserve">
<g>
	<path d="M2.25,2.25h-4.5v-4.5h4.5V2.25z M-1.75,1.75h3.5v-3.5h-3.5V1.75z"/>
	<rect x="-0.25" y="-9.9" transform="matrix(0.7071 -0.7071 0.7071 0.7071 0 0)" width="0.5" height="19.8"/>
	<rect x="-9.9" y="-0.25" transform="matrix(0.7071 -0.7071 0.7071 0.7071 0 0)" width="19.8" height="0.5"/>
	<rect x="4.75" y="-16.31" transform="matrix(0.7071 -0.7071 0.7071 0.7071 5 2.0711)" width="0.5" height="22.63"/>
	<rect x="-5.25" y="-6.31" transform="matrix(0.7071 -0.7071 0.7071 0.7071 -5 -2.0711)" width="0.5" height="22.63"/>
	<rect x="-6.31" y="4.75" transform="matrix(0.7071 -0.7071 0.7071 0.7071 -2.0711 5)" width="22.63" height="0.5"/>
	<rect x="-16.31" y="-5.25" transform="matrix(0.7071 -0.7071 0.7071 0.7071 2.0711 -5)" width="22.63" height="0.5"/>
	<path d="M-6.75-6.75h-2.5v-2.5h2.5V-6.75z M-8.75-7.25h1.5v-1.5h-1.5V-7.25z"/>
	<path d="M9.25,9.25h-2.5v-2.5h2.5V9.25z M7.25,8.75h1.5v-1.5h-1.5V8.75z"/>
	<path d="M-6.75,9.25h-2.5v-2.5h2.5V9.25z M-8.75,8.75h1.5v-1.5h-1.5V8.75z"/>
	<path d="M9.25-6.75h-2.5v-2.5h2.5V-6.75z M7.25-7.25h1.5v-1.5h-1.5V-7.25z"/>
</g>
</svg>
