<?xml version="1.0" encoding="utf-8"?>
<!-- Generator: Adobe Illustrator 23.0.3, SVG Export Plug-In . SVG Version: 6.00 Build 0)  -->
<svg version="1.1" id="レイヤー_1" xmlns="http://www.w3.org/2000/svg" xmlns:xlink="http://www.w3.org/1999/xlink" x="0px"
	 y="0px" viewBox="0 0 960 540" style="enable-background:new 0 0 960 540;" xml:space="preserve">
<g>
	<path d="M0,11.67L-11.67,0L0-11.67L11.67,0L0,11.67z M-10.96,0L0,10.96L10.96,0L0-10.96L-10.96,0z"/>
	<path d="M0-12.41L-1.59-14L0-15.59L1.59-14L0-12.41z M-1.24-14L0-12.76L1.24-14L0-15.24L-1.24-14z"/>
	<path d="M0,15.59L-1.59,14L0,12.41L1.59,14L0,15.59z M-1.24,14L0,15.24L1.24,14L0,12.76L-1.24,14z"/>
	<path d="M14,1.59L12.41,0L14-1.59L15.59,0L14,1.59z M12.76,0L14,1.24L15.24,0L14-1.24L12.76,0z"/>
	<path d="M-14,1.59L-15.59,0L-14-1.59L-12.41,0L-14,1.59z M-15.24,0L-14,1.24L-12.76,0L-14-1.24L-15.24,0z"/>
	<path d="M0,8.66l-0.09-0.09L-8.66,0l0.09-0.09L0-8.66l0.09,0.09L8.66,0L8.57,0.09L0,8.66z M-8.31,0L0,8.31L8.31,0L0-8.31L-8.31,0z"
		/>
	<path d="M1.12,1.12h-2.25v-2.25h2.25V1.12z M-0.88,0.88h1.75v-1.75h-1.75V0.88z"/>
</g>
</svg>
