<?xml version="1.0" encoding="utf-8"?>
<!-- Generator: Adobe Illustrator 23.0.3, SVG Export Plug-In . SVG Version: 6.00 Build 0)  -->
<svg version="1.1" id="レイヤー_1" xmlns="http://www.w3.org/2000/svg" xmlns:xlink="http://www.w3.org/1999/xlink" x="0px"
	 y="0px" viewBox="0 0 960 540" style="enable-background:new 0 0 960 540;" xml:space="preserve">
<g>
	<path d="M0-3.89l-1.77-1.77L0-7.42l1.77,1.77L0-3.89z M-1.06-5.66L0-4.6l1.06-1.06L0-6.72L-1.06-5.66z"/>
	<path d="M-5.66,6.01L-11.67,0l6.01-6.01L0.35,0L-5.66,6.01z M-10.96,0l5.3,5.3l5.3-5.3l-5.3-5.3L-10.96,0z"/>
	<path d="M5.66,6.01L-0.35,0l6.01-6.01L11.67,0L5.66,6.01z M0.35,0l5.3,5.3l5.3-5.3l-5.3-5.3L0.35,0z"/>
	<path d="M0,7.42l-1.77-1.77L0,3.89l1.77,1.77L0,7.42z M-1.06,5.66L0,6.72l1.06-1.06L0,4.6L-1.06,5.66z"/>
</g>
</svg>
